<svg width="24" height="25" viewBox="0 0 24 25" fill="none" xmlns="http://www.w3.org/2000/svg">
<path d="M15.0281 6.47642C16.1027 5.97248 17.4228 6.16441 18.3105 7.05209C19.1981 7.93978 19.3901 9.25981 18.8861 10.3345C20.0024 10.738 20.8 11.8071 20.8 13.0625C20.8 14.3179 20.0024 15.387 18.8861 15.7905C19.3901 16.8652 19.1981 18.1852 18.3105 19.0729C17.4228 19.9606 16.1027 20.1525 15.0281 19.6486C14.6245 20.7648 13.5554 21.5625 12.3 21.5625C11.0447 21.5625 9.97555 20.7648 9.57201 19.6486C8.49736 20.1525 7.17732 19.9606 6.28964 19.0729C5.40196 18.1852 5.21002 16.8652 5.71397 15.7905C4.59774 15.387 3.80005 14.3179 3.80005 13.0625C3.80005 11.8071 4.59774 10.738 5.71397 10.3345C5.21002 9.25981 5.40196 7.93978 6.28964 7.05209C7.17732 6.16441 8.49736 5.97248 9.572 6.47642C9.97555 5.36019 11.0447 4.5625 12.3 4.5625C13.5554 4.5625 14.6245 5.36019 15.0281 6.47642Z" fill="#C2CCDE" fill-opacity="0.25"/>
<path d="M9.15544 11.7124C8.74272 11.2997 8.74272 10.6306 9.15544 10.2179C9.56815 9.80517 10.2373 9.80517 10.65 10.2179C11.0627 10.6306 11.0627 11.2997 10.65 11.7124C10.2373 12.1252 9.56815 12.1252 9.15544 11.7124Z" fill="#C2CCDE" fill-opacity="0.25"/>
<path d="M13.3402 15.8972C12.9275 15.4845 12.9275 14.8154 13.3402 14.4027C13.7529 13.99 14.4221 13.99 14.8348 14.4027C15.2475 14.8154 15.2475 15.4845 14.8348 15.8972C14.4221 16.3099 13.7529 16.3099 13.3402 15.8972Z" fill="#C2CCDE" fill-opacity="0.25"/>
<path d="M15.2084 9.69478L8.63234 16.2709M18.3105 7.05209C17.4228 6.16441 16.1027 5.97248 15.0281 6.47642C14.6245 5.36019 13.5554 4.5625 12.3 4.5625C11.0447 4.5625 9.97555 5.36019 9.572 6.47642C8.49736 5.97248 7.17732 6.16441 6.28964 7.05209C5.40196 7.93978 5.21002 9.25981 5.71397 10.3345C4.59774 10.738 3.80005 11.8071 3.80005 13.0625C3.80005 14.3179 4.59774 15.387 5.71397 15.7905C5.21002 16.8652 5.40196 18.1852 6.28964 19.0729C7.17732 19.9606 8.49736 20.1525 9.57201 19.6486C9.97555 20.7648 11.0447 21.5625 12.3 21.5625C13.5554 21.5625 14.6245 20.7648 15.0281 19.6486C16.1027 20.1525 17.4228 19.9606 18.3105 19.0729C19.1981 18.1852 19.3901 16.8652 18.8861 15.7905C20.0024 15.387 20.8 14.3179 20.8 13.0625C20.8 11.8071 20.0024 10.738 18.8861 10.3345C19.3901 9.25981 19.1981 7.93978 18.3105 7.05209ZM10.65 11.7124C10.2373 12.1252 9.56815 12.1252 9.15544 11.7124C8.74272 11.2997 8.74272 10.6306 9.15544 10.2179C9.56815 9.80517 10.2373 9.80517 10.65 10.2179C11.0627 10.6306 11.0627 11.2997 10.65 11.7124ZM14.8348 15.8972C14.4221 16.3099 13.7529 16.3099 13.3402 15.8972C12.9275 15.4845 12.9275 14.8154 13.3402 14.4027C13.7529 13.99 14.4221 13.99 14.8348 14.4027C15.2475 14.8154 15.2475 15.4845 14.8348 15.8972Z" stroke="#414141" stroke-linecap="round" stroke-linejoin="round"/>
</svg>
