<svg width="25" height="24" viewBox="0 0 25 24" fill="none" xmlns="http://www.w3.org/2000/svg">
<path d="M17.0384 6.39209L12.5481 9.89641L7.95508 6.39209V6.39304L7.96063 6.39777V11.3048L12.4963 14.8848L17.0384 11.443V6.39209Z" fill="#F44336"/>
<path d="M18.2176 5.53979L17.0383 6.39219V11.4431L20.749 8.59423V6.87806C20.749 6.87806 20.2986 4.42693 18.2176 5.53979Z" fill="#FDD835"/>
<path d="M17.0383 11.4432V17.9943H19.8824C19.8824 17.9943 20.6916 17.911 20.7499 16.9885V8.59424L17.0383 11.4432Z" fill="#43A048"/>
<path d="M7.96084 17.9999V11.3048L7.95508 11.3L7.96084 17.9999Z" fill="#F44336"/>
<path d="M7.9551 6.39315L6.78234 5.54549C4.70135 4.43263 4.25 6.88281 4.25 6.88281V8.59898L7.9551 11.3001V6.39315Z" fill="#B71B1C"/>
<path d="M7.95508 6.39307V11.3001L7.96084 11.3048V6.3978L7.95508 6.39307Z" fill="#F44336"/>
<path d="M4.25 8.59985V16.9941C4.30734 17.9175 5.11754 17.9999 5.11754 17.9999H7.96158L7.9551 11.3001L4.25 8.59985Z" fill="#304FFE"/>
</svg>
