<svg width="24" height="25" viewBox="0 0 24 25" fill="none" xmlns="http://www.w3.org/2000/svg">
<path d="M5.21184 7.00408C4.42419 7.79173 3.98169 8.86002 3.98169 9.97393C3.98169 11.0878 4.42419 12.1561 5.21184 12.9438L11.5758 19.3077C11.8101 19.5421 12.19 19.5421 12.4243 19.3077L18.7883 12.9438C19.5759 12.1561 20.0184 11.0878 20.0184 9.97393C20.0184 8.86002 19.5759 7.79173 18.7883 7.00408C18.0006 6.21642 16.9324 5.77393 15.8184 5.77393C14.7045 5.77393 13.6362 6.21643 12.8486 7.00408L12.2074 7.6453C12.0929 7.75979 11.9073 7.75979 11.7928 7.6453L11.1515 7.00408C10.3639 6.21643 9.2956 5.77393 8.18169 5.77393C7.06778 5.77393 5.99949 6.21642 5.21184 7.00408Z" fill="#C2CCDE" fill-opacity="0.25" stroke="#414141" stroke-linecap="round" stroke-linejoin="round"/>
</svg>
