<svg width="24" height="25" viewBox="0 0 24 25" fill="none" xmlns="http://www.w3.org/2000/svg">
<path fill-rule="evenodd" clip-rule="evenodd" d="M12 6.16235L18 10.9624H17C17.5523 10.9624 18 11.4101 18 11.9624V18.3624C18 18.9146 17.5523 19.3624 17 19.3624H7C6.44772 19.3624 6 18.9146 6 18.3624L6 11.9624C6 11.4101 6.44772 10.9624 7 10.9624H6L12 6.16235ZM13.8 15.7624L13.8 12.1624H10.2L10.2 15.7624L13.8 15.7624Z" fill="#08B783"/>
<path d="M20.25 12.7624L19.35 12.0424L12 6.16235L4.65 12.0424L3.75 12.7624" stroke="#08B783" stroke-width="3" stroke-linecap="round" stroke-linejoin="round"/>
<path fill-rule="evenodd" clip-rule="evenodd" d="M16.8751 10.0624H18.6001V6.4624L12.6001 6.4624V6.6424L16.8751 10.0624Z" fill="#08B783"/>
<path d="M18.6001 10.0624V11.0624C19.1524 11.0624 19.6001 10.6147 19.6001 10.0624L18.6001 10.0624ZM16.8751 10.0624L16.2504 10.8433C16.4277 10.9851 16.648 11.0624 16.8751 11.0624V10.0624ZM18.6001 6.4624H19.6001C19.6001 5.91012 19.1524 5.4624 18.6001 5.4624V6.4624ZM12.6001 6.4624V5.4624C12.0478 5.4624 11.6001 5.91012 11.6001 6.4624H12.6001ZM12.6001 6.6424H11.6001C11.6001 6.94619 11.7382 7.2335 11.9754 7.42327L12.6001 6.6424ZM18.6001 9.0624H16.8751V11.0624H18.6001V9.0624ZM17.6001 6.4624V10.0624L19.6001 10.0624V6.4624H17.6001ZM12.6001 7.4624L18.6001 7.4624V5.4624L12.6001 5.4624V7.4624ZM13.6001 6.6424V6.4624H11.6001V6.6424H13.6001ZM11.9754 7.42327L16.2504 10.8433L17.4998 9.28153L13.2248 5.86153L11.9754 7.42327Z" fill="#08B783"/>
</svg>
