<svg width="26" height="29" viewBox="0 0 26 29" fill="none" xmlns="http://www.w3.org/2000/svg">
<g filter="url(#filter0_d_245_4908)">
<path d="M10.3483 5.59845C12.0461 4.89519 13.9538 4.89519 15.6516 5.59845C17.3494 6.30171 18.6984 7.65062 19.4016 9.34845C20.1049 11.0463 20.1049 12.9539 19.4016 14.6517C18.6984 16.3496 17.3494 17.6985 15.6516 18.4017C13.9538 19.105 12.0461 19.105 10.3483 18.4017C8.6505 17.6985 7.30159 16.3496 6.59833 14.6517C5.89506 12.9539 5.89506 11.0463 6.59833 9.34845C7.30159 7.65062 8.6505 6.30171 10.3483 5.59845Z" fill="#C2CCDE" fill-opacity="0.25" shape-rendering="crispEdges"/>
<path d="M13.0024 7.01115L13 3.6001L12.9976 7.01115C12.9992 7.01115 13.0008 7.01115 13.0024 7.01115Z" fill="#C2CCDE" fill-opacity="0.25" shape-rendering="crispEdges"/>
<path d="M17.9889 11.9977C17.9889 11.9993 17.9889 12.0009 17.9889 12.0025L21.4 12.0001L17.9889 11.9977Z" fill="#C2CCDE" fill-opacity="0.25" shape-rendering="crispEdges"/>
<path d="M13.0024 16.989C13.0008 16.989 12.9992 16.989 12.9976 16.989L13 20.4001L13.0024 16.989Z" fill="#C2CCDE" fill-opacity="0.25" shape-rendering="crispEdges"/>
<path d="M8.01103 12.0025C8.01103 12.0009 8.01103 11.9993 8.01103 11.9977L4.59998 12.0001L8.01103 12.0025Z" fill="#C2CCDE" fill-opacity="0.25" shape-rendering="crispEdges"/>
<path d="M11.9393 9.43944C12.6184 9.15813 13.3815 9.15813 14.0606 9.43944C14.7398 9.72074 15.2793 10.2603 15.5606 10.9394C15.8419 11.6186 15.8419 12.3816 15.5606 13.0608C15.2793 13.7399 14.7398 14.2795 14.0606 14.5608C13.3815 14.8421 12.6184 14.8421 11.9393 14.5608C11.2602 14.2795 10.7206 13.7399 10.4393 13.0608C10.158 12.3816 10.158 11.6186 10.4393 10.9394C10.7206 10.2603 11.2602 9.72074 11.9393 9.43944Z" fill="#C2CCDE" fill-opacity="0.25" shape-rendering="crispEdges"/>
<path d="M10.3483 5.59845C12.0461 4.89519 13.9538 4.89519 15.6516 5.59845C17.3494 6.30171 18.6984 7.65062 19.4016 9.34845C20.1049 11.0463 20.1049 12.9539 19.4016 14.6517C18.6984 16.3496 17.3494 17.6985 15.6516 18.4017C13.9538 19.105 12.0461 19.105 10.3483 18.4017C8.6505 17.6985 7.30159 16.3496 6.59833 14.6517C5.89506 12.9539 5.89506 11.0463 6.59833 9.34845C7.30159 7.65062 8.6505 6.30171 10.3483 5.59845Z" stroke="#5A5A5A" stroke-linecap="round" stroke-linejoin="round" shape-rendering="crispEdges"/>
<path d="M13.0024 7.01115L13 3.6001L12.9976 7.01115C12.9992 7.01115 13.0008 7.01115 13.0024 7.01115Z" stroke="#5A5A5A" stroke-linecap="round" stroke-linejoin="round" shape-rendering="crispEdges"/>
<path d="M17.9889 11.9977C17.9889 11.9993 17.9889 12.0009 17.9889 12.0025L21.4 12.0001L17.9889 11.9977Z" stroke="#5A5A5A" stroke-linecap="round" stroke-linejoin="round" shape-rendering="crispEdges"/>
<path d="M13.0024 16.989C13.0008 16.989 12.9992 16.989 12.9976 16.989L13 20.4001L13.0024 16.989Z" stroke="#5A5A5A" stroke-linecap="round" stroke-linejoin="round" shape-rendering="crispEdges"/>
<path d="M8.01103 12.0025C8.01103 12.0009 8.01103 11.9993 8.01103 11.9977L4.59998 12.0001L8.01103 12.0025Z" stroke="#5A5A5A" stroke-linecap="round" stroke-linejoin="round" shape-rendering="crispEdges"/>
<path d="M11.9393 9.43944C12.6184 9.15813 13.3815 9.15813 14.0606 9.43944C14.7398 9.72074 15.2793 10.2603 15.5606 10.9394C15.8419 11.6186 15.8419 12.3816 15.5606 13.0608C15.2793 13.7399 14.7398 14.2795 14.0606 14.5608C13.3815 14.8421 12.6184 14.8421 11.9393 14.5608C11.2602 14.2795 10.7206 13.7399 10.4393 13.0608C10.158 12.3816 10.158 11.6186 10.4393 10.9394C10.7206 10.2603 11.2602 9.72074 11.9393 9.43944Z" stroke="#5A5A5A" stroke-linecap="round" stroke-linejoin="round" shape-rendering="crispEdges"/>
</g>
<defs>
<filter id="filter0_d_245_4908" x="0.0999756" y="3.1001" width="25.8" height="25.8" filterUnits="userSpaceOnUse" color-interpolation-filters="sRGB">
<feFlood flood-opacity="0" result="BackgroundImageFix"/>
<feColorMatrix in="SourceAlpha" type="matrix" values="0 0 0 0 0 0 0 0 0 0 0 0 0 0 0 0 0 0 127 0" result="hardAlpha"/>
<feOffset dy="4"/>
<feGaussianBlur stdDeviation="2"/>
<feComposite in2="hardAlpha" operator="out"/>
<feColorMatrix type="matrix" values="0 0 0 0 0 0 0 0 0 0 0 0 0 0 0 0 0 0 0.25 0"/>
<feBlend mode="normal" in2="BackgroundImageFix" result="effect1_dropShadow_245_4908"/>
<feBlend mode="normal" in="SourceGraphic" in2="effect1_dropShadow_245_4908" result="shape"/>
</filter>
</defs>
</svg>
