<svg width="14" height="18" viewBox="0 0 14 18" fill="none" xmlns="http://www.w3.org/2000/svg">
<path d="M13 6.53027C13 3.21656 10.3137 0.530273 7 0.530273C3.68629 0.530273 1 3.21656 1 6.53027L1 6.89167C1 8.21753 1.41427 9.51026 2.18492 10.5892L6.98815 17.3137C6.99396 17.3218 7.00604 17.3218 7.01185 17.3137L11.8151 10.5892C12.5857 9.51026 13 8.21753 13 6.89167V6.53027Z" fill="#C2CCDE" fill-opacity="0.25"/>
<path d="M5.82725 4.13081C6.56835 3.77391 7.43165 3.77391 8.17275 4.13081C8.91385 4.4877 9.4521 5.16265 9.63514 5.96459C9.81818 6.76653 9.62608 7.60817 9.11322 8.25128C8.60036 8.89438 7.82256 9.26895 7 9.26895C6.17744 9.26895 5.39964 8.89438 4.88678 8.25128C4.37392 7.60817 4.18182 6.76653 4.36486 5.96459C4.5479 5.16265 5.08615 4.4877 5.82725 4.13081Z" fill="#C2CCDE" fill-opacity="0.25"/>
<path d="M13 6.53027C13 3.21656 10.3137 0.530273 7 0.530273C3.68629 0.530273 1 3.21656 1 6.53027L1 6.89167C1 8.21753 1.41427 9.51026 2.18492 10.5892L6.98815 17.3137C6.99396 17.3218 7.00604 17.3218 7.01185 17.3137L11.8151 10.5892C12.5857 9.51026 13 8.21753 13 6.89167V6.53027Z" stroke="#5A5A5A" stroke-linecap="round" stroke-linejoin="round"/>
<path d="M5.82725 4.13081C6.56835 3.77391 7.43165 3.77391 8.17275 4.13081C8.91385 4.4877 9.4521 5.16265 9.63514 5.96459C9.81818 6.76653 9.62608 7.60817 9.11322 8.25128C8.60036 8.89438 7.82256 9.26895 7 9.26895C6.17744 9.26895 5.39964 8.89438 4.88678 8.25128C4.37392 7.60817 4.18182 6.76653 4.36486 5.96459C4.5479 5.16265 5.08615 4.4877 5.82725 4.13081Z" stroke="#5A5A5A" stroke-linecap="round" stroke-linejoin="round"/>
</svg>
