<svg width="40" height="41" viewBox="0 0 40 41" fill="none" xmlns="http://www.w3.org/2000/svg">
<path d="M6 11.7625V29.7625C6 31.4193 7.34315 32.7625 9 32.7625H31C32.6569 32.7625 34 31.4193 34 29.7625V15.7625C34 14.1056 32.6569 12.7625 31 12.7625H30V11.7625C30 10.1056 28.6569 8.76245 27 8.76245H9C7.34315 8.76245 6 10.1056 6 11.7625Z" fill="#C2CCDE" fill-opacity="0.25"/>
<path d="M26 22.2625C26 21.1579 26.8954 20.2625 28 20.2625C29.1046 20.2625 30 21.1579 30 22.2625C30 23.367 29.1046 24.2625 28 24.2625C26.8954 24.2625 26 23.367 26 22.2625Z" fill="#C2CCDE" fill-opacity="0.25"/>
<path d="M30 12.7625V11.7625C30 10.1056 28.6569 8.76245 27 8.76245H9C7.34315 8.76245 6 10.1056 6 11.7625V29.7625C6 31.4193 7.34315 32.7625 9 32.7625H31C32.6569 32.7625 34 31.4193 34 29.7625V15.7625C34 14.1056 32.6569 12.7625 31 12.7625H30ZM30 12.7625H11.25M28 24.2625C26.8954 24.2625 26 23.367 26 22.2625C26 21.1579 26.8954 20.2625 28 20.2625C29.1046 20.2625 30 21.1579 30 22.2625C30 23.367 29.1046 24.2625 28 24.2625Z" stroke="white" stroke-linecap="round" stroke-linejoin="round"/>
</svg>
